<?xml version="1.0" encoding="utf-8"?>
<!-- Generator: Adobe Illustrator 25.3.1, SVG Export Plug-In . SVG Version: 6.00 Build 0)  -->
<svg version="1.1" id="Capa_1" xmlns="http://www.w3.org/2000/svg" xmlns:xlink="http://www.w3.org/1999/xlink" x="0px" y="0px"
	 viewBox="0 0 463.5 194.55" style="enable-background:new 0 0 463.5 194.55;" xml:space="preserve">
<style type="text/css">
	.Sombra_x0020_paralela{fill:none;}
	.Resplandor_x0020_externo_x0020_5_x0020_pt_x002E_{fill:none;}
	.Neón_x0020_azul{fill:none;stroke:#8AACDA;stroke-width:7;stroke-linecap:round;stroke-linejoin:round;}
	.Resalte_x0020_cromado{fill:url(#SVGID_1_);stroke:#FFFFFF;stroke-width:0.3629;stroke-miterlimit:1;}
	.A_x0020_todo_x0020_ritmo_GS{fill:#FFDD00;}
	.Alyssa_GS{fill:#A6D0E4;}
	.st0{fill:#303547;}
	.st1{fill:#FFFFFF;}
	.st2{fill:#39A9CB;}
</style>
<linearGradient id="SVGID_1_" gradientUnits="userSpaceOnUse" x1="-18.2482" y1="-137.5532" x2="-18.2482" y2="-138.5532">
	<stop  offset="0" style="stop-color:#656565"/>
	<stop  offset="0.618" style="stop-color:#1B1B1B"/>
	<stop  offset="0.6292" style="stop-color:#545454"/>
	<stop  offset="0.9831" style="stop-color:#3E3E3E"/>
</linearGradient>
<g>
	<g>
		<path class="st0" d="M137.34,62.86c-3.86,0-6.99-3.14-6.99-6.99V43.62h-27.97v12.24c0,3.86-3.13,6.99-6.99,6.99
			c-3.86,0-6.99-3.14-6.99-6.99V43.62c0.01-7.71,6.29-13.98,14-13.98h27.97c7.71,0,13.98,6.27,13.98,13.98v12.24
			C144.34,59.72,141.21,62.86,137.34,62.86L137.34,62.86z"/>
		<path class="st0" d="M179.7,50.62H54.31c-10.28,0-18.63,8.62-18.63,19.22v73.41c0,10.6,8.36,19.22,18.63,19.22h22.17
			c5.9,0.01,69.15,0.01,81.03,0.01h22.18c10.28,0,18.63-8.62,18.63-19.22V69.85C198.34,59.24,189.98,50.62,179.7,50.62L179.7,50.62z
			"/>
		<g>
			<path class="st1" d="M47.19,70.53h27.84v36.72c2.34-2.15,4.92-3.82,7.72-5.04c2.8-1.21,5.89-1.82,9.27-1.82
				c7.43,0,13.12,2.08,17.05,6.23c3.94,4.15,5.9,10.23,5.9,18.21v22.12h9.06v16.33h-27.6v-34.28c0-3.46-0.86-6.18-2.56-8.17
				c-1.71-1.99-3.92-2.98-6.62-2.98c-1.79,0-3.74,0.5-5.84,1.49c-2.11,0.99-4.23,2.44-6.38,4.35v23.25h9.06v16.33h-36.9v-16.33h9.54
				v-60.1h-9.54V70.53z"/>
			<path class="st1" d="M163.56,101.54h29.21v45.43h7.45v16.33h-26.17v-5.25c-2.11,1.91-4.57,3.38-7.39,4.41
				c-2.82,1.03-6.08,1.55-9.78,1.55c-3.42,0-6.64-0.54-9.66-1.61c-3.02-1.07-5.65-2.69-7.9-4.86c-2.25-2.17-4.02-4.88-5.31-8.14
				c-1.29-3.26-1.94-7.09-1.94-11.51v-20.03h-8.05v-16.34h27.3v36.37c0,4.13,1.05,7.22,3.16,9.27c2.11,2.05,4.85,3.07,8.23,3.07
				c2.38,0,4.55-0.73,6.5-2.21c1.95-1.47,3.36-3.46,4.23-5.96v-24.21h-9.9V101.54z"/>
			<path class="st2" d="M248.37,117.69c-0.62-0.87-1.52-1.64-2.71-2.3c-1.19-0.66-2.65-1.18-4.38-1.58s-3.69-0.6-5.87-0.6
				c-0.83,0-1.73,0.07-2.68,0.21c-0.95,0.14-1.84,0.39-2.65,0.75c-0.82,0.36-1.49,0.84-2.03,1.46s-0.8,1.4-0.8,2.35
				c0,0.48,0.07,0.93,0.21,1.37c0.14,0.44,0.41,0.86,0.81,1.25c0.4,0.4,0.94,0.77,1.64,1.1c0.7,0.34,1.6,0.61,2.71,0.8l11.21,2.21
				c4.05,0.79,7.45,1.79,10.2,2.98c2.74,1.19,4.95,2.58,6.62,4.17c1.67,1.59,2.87,3.36,3.61,5.31c0.73,1.95,1.1,4.05,1.1,6.32
				c0,3.54-0.82,6.64-2.47,9.3c-1.65,2.66-3.82,4.88-6.5,6.65c-2.68,1.77-5.7,3.1-9.06,4c-3.36,0.89-6.75,1.34-10.17,1.34
				c-2.23,0-4.24-0.14-6.05-0.42c-1.81-0.28-3.44-0.66-4.89-1.13c-1.45-0.48-2.74-1.04-3.88-1.7c-1.13-0.66-2.18-1.38-3.13-2.18
				h-10.79v-16.57h16.87v0.36c0.04,1.15,0.4,2.16,1.07,3.01c0.68,0.85,1.56,1.58,2.65,2.18c1.09,0.6,2.33,1.04,3.73,1.34
				c1.39,0.3,2.86,0.45,4.41,0.45c3.58,0,6.18-0.47,7.81-1.4c1.63-0.93,2.44-2.14,2.44-3.61c0-1.15-0.4-2.14-1.19-2.95
				c-0.79-0.81-2.21-1.46-4.23-1.94l-11.45-2.44c-7.19-1.39-12.62-3.71-16.28-6.95c-3.66-3.24-5.48-7.4-5.48-12.49
				c0-2.98,0.69-5.69,2.09-8.14c1.39-2.44,3.28-4.53,5.66-6.26c2.38-1.73,5.18-3.07,8.38-4.02c3.2-0.95,6.63-1.43,10.28-1.43
				c2.5,0,4.73,0.15,6.68,0.45c1.95,0.3,3.7,0.69,5.25,1.16c1.55,0.48,2.91,1.04,4.08,1.7c1.17,0.66,2.21,1.34,3.13,2.06h10.38
				v16.57h-15.38C249.29,119.48,248.98,118.57,248.37,117.69z"/>
			<path class="st2" d="M299.49,101.54h12.34v15.62h-12.46l-0.12,26.11c0,1.51,0.12,2.73,0.36,3.67c0.24,0.93,0.59,1.68,1.04,2.24
				c0.46,0.56,1,0.93,1.64,1.13c0.64,0.2,1.37,0.3,2.21,0.3c1.51,0,2.84-0.15,3.99-0.45c1.15-0.3,2.3-0.65,3.46-1.04l2.56,11.51
				c-2.03,1.27-4.28,2.29-6.77,3.04c-2.48,0.75-5.44,1.13-8.85,1.13c-2.42,0-4.74-0.42-6.95-1.25c-2.21-0.83-4.14-2.1-5.81-3.79
				s-3-3.81-3.99-6.35c-0.99-2.54-1.47-5.5-1.43-8.88l0.18-27.37h-8.88v-15.62h8.94l0.12-14.79l18.54-8.82L299.49,101.54z"/>
			<path class="st2" d="M322.62,70.53h27.84v76.43H360v16.33h-37.38v-16.33h9.54v-60.1h-9.54V70.53z"/>
			<path class="st2" d="M382.24,136.29l0.18,1.85c0.44,1.79,1.18,3.36,2.24,4.71c1.05,1.35,2.3,2.48,3.73,3.4
				c1.43,0.92,3.02,1.6,4.77,2.06c1.75,0.46,3.52,0.69,5.31,0.69c1.79,0,3.49-0.11,5.1-0.33c1.61-0.22,3.17-0.52,4.68-0.89
				c1.51-0.38,2.98-0.81,4.41-1.31s2.88-1.02,4.35-1.58l6.56,12.22c-2.27,1.39-4.34,2.57-6.23,3.55c-1.89,0.97-3.79,1.78-5.69,2.42
				c-1.91,0.63-3.93,1.1-6.08,1.4c-2.15,0.3-4.65,0.45-7.51,0.45c-5.37,0-10.13-0.88-14.31-2.65c-4.17-1.77-7.68-4.16-10.52-7.18
				c-2.84-3.02-5.01-6.56-6.5-10.61c-1.49-4.05-2.24-8.35-2.24-12.88s0.79-8.78,2.36-12.76c1.57-3.97,3.79-7.44,6.65-10.4
				c2.86-2.96,6.28-5.3,10.25-7c3.97-1.71,8.39-2.56,13.24-2.56c4.85,0,9.15,0.81,12.91,2.42s6.92,3.84,9.51,6.68
				c2.58,2.84,4.57,6.18,5.96,10.02c1.39,3.84,2.15,7.96,2.27,12.37c0.12,0.99,0.19,1.98,0.21,2.95c0.02,0.97-0.01,1.98-0.09,3.01
				H382.24z M396.49,113.76c-2.23,0-4.12,0.27-5.69,0.8c-1.57,0.54-2.89,1.27-3.96,2.21s-1.93,2-2.56,3.19
				c-0.64,1.19-1.13,2.44-1.49,3.76h25.81c-0.28-1.35-0.68-2.62-1.19-3.82s-1.23-2.25-2.15-3.16c-0.92-0.91-2.08-1.64-3.49-2.18
				C400.35,114.02,398.59,113.76,396.49,113.76z"/>
		</g>
	</g>
	<path class="st1" d="M194.32,35.26c-14.9,0-27.06,12.16-27.06,27.06c0,14.9,12.16,27.06,27.06,27.06
		c14.9,0,27.06-12.16,27.06-27.06C221.38,47.41,209.22,35.26,194.32,35.26z M207.18,76.31c-0.44,0.44-1,0.64-1.57,0.64
		c-0.6,0-1.17-0.2-1.61-0.64l-11.29-11.29c-0.4-0.4-0.64-1-0.64-1.57V48.79c0-1.24,1-2.24,2.24-2.24s2.24,1,2.24,2.24v13.73
		l10.62,10.58C208.05,74,208.05,75.41,207.18,76.31z"/>
	<g>
		<path class="st2" d="M194.32,40.3c-12.12,0-22.01,9.89-22.01,22.01c0,12.12,9.89,22.01,22.01,22.01
			c12.12,0,22.01-9.89,22.01-22.01C216.34,50.19,206.45,40.3,194.32,40.3z M204.78,73.7c-0.35,0.35-0.82,0.52-1.28,0.52
			c-0.49,0-0.95-0.16-1.31-0.52l-9.18-9.18c-0.33-0.33-0.52-0.82-0.52-1.28V51.31c0-1.01,0.82-1.83,1.83-1.83
			c1.01,0,1.83,0.82,1.83,1.83v11.17l8.64,8.61C205.49,71.82,205.49,72.97,204.78,73.7z"/>
		<path class="st1" d="M204.78,73.7c-0.35,0.35-0.82,0.52-1.28,0.52c-0.49,0-0.95-0.16-1.31-0.52l-9.18-9.18
			c-0.33-0.33-0.52-0.82-0.52-1.28V51.31c0-1.01,0.82-1.83,1.83-1.83c1.01,0,1.83,0.82,1.83,1.83v11.17l8.64,8.61
			C205.49,71.82,205.49,72.97,204.78,73.7z"/>
	</g>
</g>
</svg>
