<svg height="512pt" viewBox="0 0 512 512" width="512pt" xmlns="http://www.w3.org/2000/svg"><path d="m437.019531 74.980469c-48.351562-48.351563-112.640625-74.980469-181.019531-74.980469s-132.667969 26.628906-181.019531 74.980469c-48.351563 48.351562-74.980469 112.640625-74.980469 181.019531 0 68.382812 26.628906 132.667969 74.980469 181.019531 48.351562 48.351563 112.640625 74.980469 181.019531 74.980469s132.667969-26.628906 181.019531-74.980469c48.351563-48.351562 74.980469-112.636719 74.980469-181.019531 0-68.378906-26.628906-132.667969-74.980469-181.019531zm-181.019531 407.019531c-124.617188 0-226-101.382812-226-226s101.382812-226 226-226 226 101.382812 226 226-101.382812 226-226 226zm0 0"/><path d="m312.566406 256 64.765625-64.761719c15.59375-15.59375 15.59375-40.972656 0-56.566406-15.597656-15.597656-40.972656-15.597656-56.570312 0l-64.761719 64.761719-64.761719-64.761719c-15.597656-15.597656-40.972656-15.597656-56.570312 0-15.59375 15.59375-15.59375 40.972656 0 56.566406l64.765625 64.761719-64.765625 64.761719c-15.59375 15.597656-15.59375 40.972656 0 56.570312 7.554687 7.554688 17.601562 11.714844 28.285156 11.714844s20.730469-4.160156 28.285156-11.714844l64.761719-64.761719 64.761719 64.761719c7.554687 7.554688 17.601562 11.714844 28.285156 11.714844s20.730469-4.160156 28.285156-11.714844c15.59375-15.597656 15.59375-40.976562 0-56.570312zm43.550782 100.117188c-1.886719 1.890624-4.398438 2.929687-7.070313 2.929687s-5.183594-1.039063-7.070313-2.929687l-75.371093-75.367188c-2.925781-2.929688-6.765625-4.394531-10.605469-4.394531-3.835938 0-7.675781 1.464843-10.605469 4.394531l-75.367187 75.367188c-1.890625 1.890624-4.402344 2.929687-7.074219 2.929687-2.667969 0-5.179687-1.039063-7.066406-2.929687-3.902344-3.898438-3.902344-10.242188-.003907-14.140626l75.371094-75.371093c2.8125-2.8125 4.394532-6.625 4.394532-10.605469 0-3.976562-1.582032-7.792969-4.394532-10.605469l-75.371094-75.367187c-3.898437-3.898438-3.898437-10.246094 0-14.144532 3.898438-3.898437 10.246094-3.898437 14.144532 0l75.367187 75.371094c5.859375 5.855469 15.355469 5.855469 21.214844 0l75.367187-75.371094c3.898438-3.898437 10.246094-3.898437 14.144532 0 3.898437 3.898438 3.898437 10.242188 0 14.144532l-75.367188 75.367187c-2.816406 2.8125-4.394531 6.628907-4.394531 10.605469 0 3.980469 1.578125 7.796875 4.394531 10.605469l75.367188 75.371093c3.894531 3.898438 3.894531 10.242188-.003906 14.140626zm0 0"/></svg>