<svg id="Layer_1" enable-background="new 0 0 511.5 511.5" height="512" viewBox="0 0 511.5 511.5" width="512" xmlns="http://www.w3.org/2000/svg"><g><path d="m80 136.25h16v15h-16z"/><path d="m112 136.25h16v15h-16z"/><path d="m144 136.25h16v15h-16z"/><path d="m256 224.25c-23.663 0-46.54 6.905-66.157 19.97l8.314 12.485c6.577-4.38 13.577-7.961 20.873-10.72-6.714 8.913-12.427 20.246-16.813 33.376l-52.914-52.914-10.606 10.606 27.664 27.664c-19.316 21.833-29.861 49.578-29.861 79.032 0 65.893 53.607 119.5 119.5 119.5 23.663 0 46.54-6.905 66.158-19.969l-8.314-12.485c-6.577 4.38-13.578 7.96-20.873 10.72 6.714-8.914 12.427-20.246 16.813-33.376l52.914 52.914 10.606-10.606-27.668-27.668c19.302-21.846 29.865-49.67 29.865-79.029-.001-65.893-53.608-119.5-119.501-119.5zm104.228 112h-40.851c-1.184-37.652-11.23-70.094-26.379-90.228 37.185 14.125 64.284 48.887 67.23 90.228zm-111.728 15v95.612c-9.25-3.396-18.214-12.919-25.39-27.27-9.186-18.371-14.59-42.413-15.468-68.342zm-40.858-15c.321-9.485 1.246-18.713 2.745-27.507l27.507 27.507zm55.858 0v-95.612c9.25 3.396 18.214 12.919 25.39 27.27 9.186 18.371 14.59 42.413 15.469 68.342zm40.858 15c-.321 9.485-1.246 18.713-2.745 27.507l-27.507-27.507zm-81.248-83.342c7.175-14.351 16.14-23.874 25.39-27.27v85.005l-34.252-34.252c2.374-8.516 5.333-16.424 8.862-23.483zm-25.502 28.056c-2.805 12.416-4.535 25.974-4.986 40.286h-40.856c1.589-22.633 10.362-43.795 25.226-60.901zm-45.836 55.286h40.851c1.184 37.652 11.231 70.094 26.379 90.228-37.185-14.125-64.284-48.887-67.23-90.228zm137.118 68.342c-7.176 14.351-16.14 23.874-25.39 27.27v-85.005l34.252 34.252c-2.374 8.516-5.333 16.424-8.862 23.483zm25.502-28.056c2.805-12.416 4.535-25.974 4.985-40.286h40.856c-1.595 22.576-10.381 43.785-25.231 60.897z"/><path d="m376.5 143.75h15v-16.5h16.5v-15h-16.5v-16.5h-15v16.5h-16.5v15h16.5z"/><path d="m31.5 103.75v-16.5h16.5v-15h-16.5v-16.5h-15v16.5h-16.5v15h16.5v16.5z"/><path d="m488 48.25c-12.958 0-23.5 10.542-23.5 23.5s10.542 23.5 23.5 23.5 23.5-10.542 23.5-23.5-10.542-23.5-23.5-23.5zm0 32c-4.687 0-8.5-3.813-8.5-8.5s3.813-8.5 8.5-8.5 8.5 3.813 8.5 8.5-3.813 8.5-8.5 8.5z"/><path d="m460 112.25h-36v15h32.5v33h-401v-33h288.5v-15h-292c-6.341 0-11.5 5.159-11.5 11.5v77.734c-9.29 3.138-16 11.93-16 22.266s6.71 19.128 16 22.266v157.734c0 6.341 5.159 11.5 11.5 11.5h84v-15h-80.5v-154.234c9.29-3.138 16-11.93 16-22.266s-6.71-19.128-16-22.266v-26.234h401v225h-80.5v15h84c6.341 0 11.5-5.159 11.5-11.5v-280c0-6.341-5.159-11.5-11.5-11.5zm-412 120c-4.687 0-8.5-3.813-8.5-8.5s3.813-8.5 8.5-8.5 8.5 3.813 8.5 8.5-3.813 8.5-8.5 8.5z"/></g></svg>